<svg width="34" height="12" viewBox="0 0 34 12" fill="none" xmlns="http://www.w3.org/2000/svg">
<path d="M6.54586 0.57143C7.21114 0.333334 7.8289 0.190475 8.39914 0.142857C8.96938 0.0476182 9.53961 0 10.1099 0C11.9631 0 13.6026 0.452381 15.0282 1.35714C16.5013 2.26191 17.8556 3.47619 19.0911 5C19.8989 6 20.7068 6.78572 21.5146 7.35714C22.37 7.88095 23.2729 8.14286 24.2233 8.14286C24.7935 8.14286 25.435 8.02381 26.1478 7.78571C27.4784 7.35714 28.4763 6.52381 29.1416 5.28571C29.8068 4 30.092 2.47619 29.9969 0.714285H33.9886C34.0836 3.33333 33.5847 5.59524 32.4917 7.5C31.4463 9.40476 29.7831 10.7381 27.5021 11.5C26.5517 11.8333 25.4825 12 24.2945 12C22.6313 12 21.1345 11.619 19.8039 10.8571C18.4734 10.0952 17.119 8.88095 15.741 7.21429C14.9331 6.26191 14.0778 5.45238 13.1749 4.78571C12.272 4.11905 11.2028 3.78572 9.96729 3.78572C9.20698 3.78572 8.49418 3.90476 7.8289 4.14286C6.54586 4.57143 5.5717 5.38095 4.90643 6.57143C4.24115 7.76191 3.95603 9.19048 4.05107 10.8571H0.0593998C-0.1782 8.2381 0.296999 6.04762 1.485 4.28571C2.72051 2.47619 4.40747 1.2381 6.54586 0.57143Z" fill="white"/>
</svg>
