<svg width="16" height="16" viewBox="0 0 16 16" fill="none" xmlns="http://www.w3.org/2000/svg">
<rect width="16" height="16" fill="white" fill-opacity="0.01"/>
<path fill-rule="evenodd" clip-rule="evenodd" d="M2.5 10.5C2.5 10.2239 2.72386 10 3 10H13C13.2761 10 13.5 10.2239 13.5 10.5C13.5 10.7761 13.2761 11 13 11H3C2.72386 11 2.5 10.7761 2.5 10.5Z" fill="white"/>
<path fill-rule="evenodd" clip-rule="evenodd" d="M5.25 8C5.25 6.48122 6.48122 5.25 8 5.25C9.51878 5.25 10.75 6.48122 10.75 8C10.75 8.78801 10.4186 9.49862 9.88747 10H11.1727C11.5384 9.42115 11.75 8.73529 11.75 8C11.75 5.92893 10.0711 4.25 8 4.25C5.92893 4.25 4.25 5.92893 4.25 8C4.25 8.73529 4.46162 9.42115 4.82728 10H6.11253C5.58144 9.49862 5.25 8.78801 5.25 8Z" fill="white"/>
<rect x="7.5" y="1.5" width="1" height="2" rx="0.5" fill="white"/>
<rect x="12.0659" y="2.97702" width="1" height="2" rx="0.5" transform="rotate(45 12.0659 2.97702)" fill="white"/>
<rect x="14.25" y="7.25003" width="1" height="2" rx="0.5" transform="rotate(90 14.25 7.25003)" fill="white"/>
<rect x="3.75" y="7.25003" width="1" height="2" rx="0.5" transform="rotate(90 3.75 7.25003)" fill="white"/>
<rect x="5.34835" y="4.39124" width="1" height="2" rx="0.5" transform="rotate(135 5.34835 4.39124)" fill="white"/>
<path fill-rule="evenodd" clip-rule="evenodd" d="M8 11.5C7.72385 11.5 7.5 11.7239 7.5 12V13.3536L7.29289 13.1464C7.09763 12.9512 6.78105 12.9512 6.58579 13.1464C6.39052 13.3417 6.39052 13.6583 6.58579 13.8536L7.64645 14.9142C7.84171 15.1095 8.15829 15.1095 8.35355 14.9142L9.41421 13.8536C9.60947 13.6583 9.60947 13.3417 9.41421 13.1464C9.21895 12.9512 8.90237 12.9512 8.70711 13.1464L8.5 13.3536V12C8.5 11.7239 8.27614 11.5 8 11.5Z" fill="white"/>
</svg>
