<svg width="27" height="16" viewBox="0 0 27 16" fill="none" xmlns="http://www.w3.org/2000/svg">
<rect x="0.900391" width="26" height="16" rx="4" fill="#FF7528"/>
<path d="M6.27039 6.59V8.02H5.45039C5.71039 7.4 5.95039 6.68 6.17039 5.87H8.23039V4.96H6.40039C6.48039 4.62 6.55039 4.27 6.63039 3.91L5.75039 3.78C5.67039 4.19 5.58039 4.58 5.50039 4.96H4.35039V5.87H5.28039C5.04039 6.76 4.77039 7.49 4.49039 8.06L4.69039 8.91H6.27039V10.28C5.67039 10.38 5.04039 10.46 4.37039 10.54L4.49039 11.46C5.11039 11.38 5.70039 11.29 6.27039 11.19V12.99H7.19039V11.01C7.62039 10.91 8.04039 10.81 8.44039 10.71V9.85C8.04039 9.94 7.63039 10.03 7.19039 10.12V8.91H8.18039V8.02H7.19039V6.59H6.27039ZM10.2604 9.79V11.79H7.98039V12.7H13.4204V11.79H11.1904V9.79H12.9804V8.88H8.58039V9.79H10.2604ZM11.0704 7.15C11.8104 7.65 12.3904 8.13 12.8304 8.58L13.4904 7.91C12.9904 7.45 12.3804 6.99 11.6704 6.53C12.0404 6.08 12.3404 5.58 12.5604 5.02V4.27H8.58039V5.18H11.4704C10.8504 6.3 9.75039 7.17 8.15039 7.8L8.74039 8.58C9.66039 8.19 10.4304 7.71 11.0704 7.15ZM16.4804 9.29V10.1H17.1504C17.5704 10.64 18.0904 11.11 18.7204 11.53C17.8604 11.86 16.8704 12.1 15.7604 12.26L16.1704 13.09C17.4904 12.87 18.6604 12.53 19.6604 12.06C20.6104 12.52 21.7504 12.87 23.0804 13.09L23.4904 12.27C22.3904 12.13 21.4104 11.89 20.5604 11.57C21.2804 11.13 21.8904 10.61 22.4004 9.99V9.29H16.4804ZM18.1704 10.1H21.1204C20.6804 10.49 20.1704 10.84 19.5904 11.14C19.0404 10.84 18.5704 10.5 18.1704 10.1ZM16.0404 7.2H17.5404V8.74H21.7304V7.2H23.2304V6.32H21.7304V5.64H20.8104V6.32H18.4604V5.65H17.5404V6.32H16.0404V5.4H23.2304V4.5H19.8704C19.7704 4.22 19.6604 3.96 19.5504 3.73L18.5404 3.89C18.6604 4.07 18.7804 4.28 18.8904 4.5H15.1004V7.76C15.0804 9.72 14.7904 11.26 14.2504 12.36L14.9704 13C15.6504 11.68 16.0004 9.94 16.0404 7.76V7.2ZM18.4604 7.2H20.8104V7.95H18.4604V7.2Z" fill="white"/>
</svg>
