<svg
  width="14"
  height="14"
  viewBox="0 0 14 14"
  fill="none"
  xmlns="http://www.w3.org/2000/svg">
  <path
    fill-rule="evenodd"
    clip-rule="evenodd"
    d="M7 1.64062C9.9599 1.64062 12.3594 4.0401 12.3594 7C12.3594 9.9599 9.9599 12.3594 7 12.3594C4.0401 12.3594 1.64062 9.9599 1.64062 7C1.64062 4.0401 4.0401 1.64062 7 1.64062ZM7 2.40625C4.46294 2.40625 2.40625 4.46294 2.40625 7C2.40625 9.53706 4.46294 11.5938 7 11.5938C9.53706 11.5938 11.5938 9.53706 11.5938 7C11.5938 4.46294 9.53706 2.40625 7 2.40625ZM7.38281 4.8125C7.38281 4.60108 7.21142 4.42969 7 4.42969C6.78858 4.42969 6.61719 4.60108 6.61719 4.8125V6.61719H4.8125C4.60108 6.61719 4.42969 6.78858 4.42969 7C4.42969 7.21142 4.60108 7.38281 4.8125 7.38281H6.61719V9.1875C6.61719 9.39892 6.78858 9.57031 7 9.57031C7.21142 9.57031 7.38281 9.39892 7.38281 9.1875V7.38281H9.1875C9.39892 7.38281 9.57031 7.21142 9.57031 7C9.57031 6.78858 9.39892 6.61719 9.1875 6.61719H7.38281V4.8125Z"
    fill="white" />
</svg>
