<svg width="16" height="16" viewBox="0 0 16 16" fill="none" xmlns="http://www.w3.org/2000/svg">
<rect width="16" height="16" fill="white" fill-opacity="0.01"/>
<path fill-rule="evenodd" clip-rule="evenodd" d="M2.5 13C2.5 12.7239 2.72386 12.5 3 12.5H13C13.2761 12.5 13.5 12.7239 13.5 13C13.5 13.2761 13.2761 13.5 13 13.5H3C2.72386 13.5 2.5 13.2761 2.5 13Z" fill="white"/>
<path fill-rule="evenodd" clip-rule="evenodd" d="M5.25 10.5C5.25 8.98122 6.48122 7.75 8 7.75C9.51878 7.75 10.75 8.98122 10.75 10.5C10.75 11.288 10.4186 11.9986 9.88747 12.5H11.1727C11.5384 11.9211 11.75 11.2353 11.75 10.5C11.75 8.42893 10.0711 6.75 8 6.75C5.92893 6.75 4.25 8.42893 4.25 10.5C4.25 11.2353 4.46162 11.9211 4.82728 12.5H6.11253C5.58144 11.9986 5.25 11.288 5.25 10.5Z" fill="white"/>
<rect x="12.0659" y="5.47705" width="1" height="2" rx="0.5" transform="rotate(45 12.0659 5.47705)" fill="white"/>
<rect x="14.25" y="9.75" width="1" height="2" rx="0.5" transform="rotate(90 14.25 9.75)" fill="white"/>
<rect x="3.75" y="9.75" width="1" height="2" rx="0.5" transform="rotate(90 3.75 9.75)" fill="white"/>
<rect x="5.34835" y="6.89124" width="1" height="2" rx="0.5" transform="rotate(135 5.34835 6.89124)" fill="white"/>
<path fill-rule="evenodd" clip-rule="evenodd" d="M8.5 3.95638V5.5C8.5 5.77614 8.27614 6 8 6C7.72385 6 7.5 5.77614 7.5 5.5V3.95639L7.29289 4.16349C7.09763 4.35875 6.78105 4.35875 6.58579 4.16349C6.39052 3.96823 6.39052 3.65165 6.58579 3.45638L7.64645 2.39572C7.84171 2.20046 8.15829 2.20046 8.35355 2.39572L9.41421 3.45638C9.60947 3.65165 9.60947 3.96823 9.41421 4.16349C9.21895 4.35875 8.90237 4.35875 8.70711 4.16349L8.5 3.95638Z" fill="white"/>
</svg>
